<svg width="430" height="430" viewBox="0 0 430 430" fill="none" xmlns="http://www.w3.org/2000/svg">
<path d="M382.85 215C382.85 248.198 373.006 280.65 354.562 308.252C336.119 335.855 309.904 357.369 279.233 370.073C248.563 382.777 214.814 386.101 182.254 379.625C149.694 373.148 119.786 357.162 96.3121 333.688C72.8379 310.214 56.8517 280.306 50.3752 247.746C43.8986 215.186 47.2226 181.437 59.9268 150.767C72.631 120.096 94.1447 93.8814 121.748 75.4378C149.35 56.9942 181.802 47.15 215 47.15C237.042 47.15 258.869 51.4916 279.233 59.9268C299.598 68.3621 318.102 80.7258 333.688 96.3121C349.274 111.898 361.638 130.402 370.073 150.767C378.508 171.131 382.85 192.958 382.85 215Z" fill="#ebe6ef"/>
<g style="mix-blend-mode:multiply" opacity="0.5">
<path d="M306.32 355.86C286.441 368.747 264.059 377.28 240.647 380.899C217.234 384.518 193.321 383.141 170.478 376.858C147.636 370.575 126.382 359.529 108.114 344.445C89.8454 329.361 74.9763 310.582 64.484 289.342C53.9916 268.101 48.1136 244.881 47.2363 221.206C46.3589 197.532 50.5022 173.94 59.3937 151.981C68.2852 130.022 81.7235 110.194 98.8254 93.7997C115.927 77.4054 136.305 64.8163 158.62 56.86C124.111 79.2549 99.0264 113.54 88.1263 153.208C77.2262 192.876 81.2698 235.166 99.4896 272.05C117.709 308.933 148.837 337.844 186.964 353.293C225.091 368.743 267.564 369.656 306.32 355.86Z" fill="#ebe6ef"/>
</g>
<path d="M215 220.88C213.674 220.88 212.402 220.353 211.464 219.416C210.527 218.478 210 217.206 210 215.88V131.08C210 129.754 210.527 128.482 211.464 127.544C212.402 126.607 213.674 126.08 215 126.08C216.326 126.08 217.598 126.607 218.536 127.544C219.473 128.482 220 129.754 220 131.08V215.88C220 217.206 219.473 218.478 218.536 219.416C217.598 220.353 216.326 220.88 215 220.88V220.88Z" fill="#a866ee"/>
<path d="M215 303.92C213.674 303.92 212.402 303.393 211.464 302.456C210.527 301.518 210 300.246 210 298.92V213.92C210 212.594 210.527 211.322 211.464 210.384C212.402 209.447 213.674 208.92 215 208.92C216.326 208.92 217.598 209.447 218.536 210.384C219.473 211.322 220 212.594 220 213.92V298.92C220 300.246 219.473 301.518 218.536 302.456C217.598 303.393 216.326 303.92 215 303.92Z" fill="#a866ee"/>
<path d="M298.91 220H213.8C212.474 220 211.202 219.473 210.264 218.536C209.327 217.598 208.8 216.326 208.8 215C208.8 213.674 209.327 212.402 210.264 211.464C211.202 210.527 212.474 210 213.8 210H298.91C300.236 210 301.508 210.527 302.445 211.464C303.383 212.402 303.91 213.674 303.91 215C303.91 216.326 303.383 217.598 302.445 218.536C301.508 219.473 300.236 220 298.91 220V220Z" fill="#a866ee"/>
<path d="M216.05 220H131.05C129.724 220 128.452 219.473 127.514 218.536C126.577 217.598 126.05 216.326 126.05 215C126.05 213.674 126.577 212.402 127.514 211.464C128.452 210.527 129.724 210 131.05 210H216.05C217.376 210 218.648 210.527 219.585 211.464C220.523 212.402 221.05 213.674 221.05 215C221.05 216.326 220.523 217.598 219.585 218.536C218.648 219.473 217.376 220 216.05 220V220Z" fill="#a866ee"/>
</svg>
